<?xml version="1.0" encoding="UTF-8" standalone="no" ?>
<!DOCTYPE svg PUBLIC "-//W3C//DTD SVG 1.1//EN" "http://www.w3.org/Graphics/SVG/1.1/DTD/svg11.dtd">
<svg xmlns="http://www.w3.org/2000/svg" xmlns:xlink="http://www.w3.org/1999/xlink" version="1.1" width="1280" height="1024" viewBox="0 0 1280 1024" xml:space="preserve">
<desc>Created with Fabric.js 5.3.0</desc>
<defs>
</defs>
<g transform="matrix(1 0 0 1 640 512)" id="background-logo"  >
<rect style="stroke: none; stroke-width: 0; stroke-dasharray: none; stroke-linecap: butt; stroke-dashoffset: 0; stroke-linejoin: miter; stroke-miterlimit: 4; fill: rgb(225,242,239); fill-opacity: 0.5; fill-rule: nonzero; opacity: 1;"  paint-order="stroke"  x="-640" y="-512" rx="0" ry="0" width="1280" height="1024" />
</g>
<g transform="matrix(1.9211538461538462 0 0 1.9211538461538462 640.0422653846153 641.3464099124311)" id="text-logo"  >
<g style=""  paint-order="stroke"   >
		<g transform="matrix(1 0 0 1 0 0)" id="text-logo-path-0"  >
<path style="stroke: none; stroke-width: 0.4680851063829785; stroke-dasharray: none; stroke-linecap: butt; stroke-dashoffset: 0; stroke-linejoin: miter; stroke-miterlimit: 4; fill: rgb(116,35,73); fill-rule: nonzero; opacity: 1;"  paint-order="stroke"  transform=" translate(-108.59, 15.399999999999999)" d="M 11.88 0 L 19.36 0 L 19.36 -24.64 L 29.04 -24.64 L 29.04 -30.8 L 2.2 -30.8 L 2.2 -24.64 L 11.88 -24.64 Z M 42.55 0 L 50.03 0 L 50.03 -10.12 L 55.62 -10.12 L 61.47 0 L 69.39 0 L 63.14 -10.82 C 66.92 -12.14 68.82 -15.4 68.82 -20.55 C 68.82 -27.37 65.38 -30.8 58.52 -30.8 L 42.55 -30.8 Z M 50.03 -16.28 L 50.03 -24.64 L 58.48 -24.64 C 60.28 -24.64 61.34 -23.28 61.34 -20.5 C 61.34 -17.69 60.37 -16.28 58.48 -16.28 Z M 106.66 0 L 114.14 0 L 102.48 -30.8 L 94.56 -30.8 L 82.9 0 L 90.38 0 L 92.53 -5.72 L 104.5 -5.72 Z M 94.86 -11.88 L 98.52 -21.52 L 102.17 -11.88 Z M 127.64 0 L 135.12 0 L 135.12 -30.8 L 127.64 -30.8 Z M 162.49 0.44 C 169.84 0.44 173.71 -1.14 175.25 -4 C 176.04 -5.46 176.4 -7.3 176.4 -9.59 C 176.4 -15.58 173.62 -18.48 165.84 -18.48 L 162.49 -18.48 C 159.41 -18.48 157.65 -18.48 156.77 -19.36 C 156.38 -19.76 156.16 -20.46 156.16 -21.43 C 156.16 -23.41 156.68 -24.33 158.49 -24.77 C 159.37 -24.99 160.73 -25.08 162.54 -25.08 C 165.13 -25.08 166.45 -24.86 167.33 -23.5 C 167.77 -22.84 167.99 -21.78 167.99 -20.42 L 175.52 -20.42 C 175.52 -28.51 171.12 -31.24 162.54 -31.24 C 155.19 -31.24 151.36 -29.66 149.82 -26.8 C 149.03 -25.34 148.63 -23.5 148.63 -21.21 C 148.63 -15.22 151.4 -12.32 159.19 -12.32 L 162.49 -12.32 C 165.44 -12.32 167.33 -12.14 168.26 -11.26 C 168.65 -10.82 168.87 -10.21 168.87 -9.37 C 168.87 -7.39 168.39 -6.51 166.58 -6.07 C 165.7 -5.85 164.3 -5.72 162.49 -5.72 C 159.32 -5.72 157.78 -5.94 156.86 -7.3 C 156.42 -7.92 156.16 -8.98 156.16 -10.38 L 148.63 -10.38 C 148.63 -4.8 150.74 -1.85 154.84 -0.53 C 156.77 0.09 159.37 0.44 162.49 0.44 Z M 189.9 0 L 214.98 0 L 214.98 -6.16 L 197.38 -6.16 L 197.38 -12.32 L 210.58 -12.32 L 210.58 -18.48 L 197.38 -18.48 L 197.38 -24.64 L 214.98 -24.64 L 214.98 -30.8 L 189.9 -30.8 Z" stroke-linecap="round" />
</g>
</g>
</g>
<g transform="matrix(1.9211538461538462 0 0 1.9211538461538462 639.1296332525762 736.9327063256949)" id="tagline-c349782e-9ba2-4d7a-a88f-99e086d1d059-logo"  >
<g style=""  paint-order="stroke"   >
		<g transform="matrix(1 0 0 1 0 -9.175599999999974)" id="tagline-c349782e-9ba2-4d7a-a88f-99e086d1d059-logo-path-0"  >
<path style="stroke: none; stroke-width: 0.22976229555349736; stroke-dasharray: none; stroke-linecap: butt; stroke-dashoffset: 0; stroke-linejoin: miter; stroke-miterlimit: 4; fill: rgb(83,113,255); fill-rule: nonzero; opacity: 1;"  paint-order="stroke"  transform=" translate(-91.95, 4.8999999999999995)" d="M 8.26 0 L 10.64 0 L 6.93 -9.8 L 4.41 -9.8 L 0.7 0 L 3.08 0 L 3.77 -1.82 L 7.57 -1.82 Z M 4.51 -3.78 L 5.67 -6.85 L 6.83 -3.78 Z M 29.05 0 L 31.57 0 L 34.3 -9.8 L 31.92 -9.8 L 30.2 -3.61 L 28.56 -9.8 L 26.18 -9.8 L 24.54 -3.61 L 22.82 -9.8 L 20.44 -9.8 L 23.17 0 L 25.69 0 L 27.37 -5.74 Z M 49.15 0.14 C 52.5 0.14 54.18 -1.48 54.18 -4.91 C 54.18 -8.27 52.61 -9.94 49.15 -9.94 C 45.78 -9.94 44.1 -8.37 44.1 -4.91 C 44.1 -1.54 45.68 0.14 49.15 0.14 Z M 46.48 -4.91 C 46.48 -6.97 47.32 -7.98 49.15 -7.98 C 50.9 -7.98 51.8 -7 51.8 -4.91 C 51.8 -2.84 50.99 -1.82 49.15 -1.82 C 47.36 -1.82 46.48 -2.79 46.48 -4.91 Z M 70.42 0 L 73.36 0 L 73.36 -9.8 L 70.98 -9.8 L 70.98 -3.04 L 66.92 -9.8 L 63.98 -9.8 L 63.98 0 L 66.36 0 L 66.36 -6.76 Z M 87.02 -1.96 L 85.54 -1.96 L 85.54 -7.84 L 87.02 -7.84 C 88.42 -7.84 89.25 -7.49 89.66 -6.65 C 89.85 -6.22 89.95 -5.64 89.95 -4.91 C 89.95 -3.5 89.59 -2.66 88.76 -2.27 C 88.31 -2.06 87.75 -1.96 87.02 -1.96 Z M 83.16 0 L 87.44 0 C 89.75 0 91.14 -0.62 91.83 -2.04 C 92.16 -2.76 92.33 -3.71 92.33 -4.91 C 92.33 -7.25 91.73 -8.62 90.31 -9.3 C 89.6 -9.63 88.65 -9.8 87.44 -9.8 L 83.16 -9.8 Z M 102.13 0 L 110.11 0 L 110.11 -1.96 L 104.51 -1.96 L 104.51 -3.92 L 108.71 -3.92 L 108.71 -5.88 L 104.51 -5.88 L 104.51 -7.84 L 110.11 -7.84 L 110.11 -9.8 L 102.13 -9.8 Z M 119.91 0 L 122.29 0 L 122.29 -3.22 L 124.07 -3.22 L 125.93 0 L 128.45 0 L 126.46 -3.44 C 127.67 -3.86 128.27 -4.9 128.27 -6.54 C 128.27 -8.71 127.18 -9.8 124.99 -9.8 L 119.91 -9.8 Z M 122.29 -5.18 L 122.29 -7.84 L 124.98 -7.84 C 125.55 -7.84 125.89 -7.41 125.89 -6.52 C 125.89 -5.63 125.58 -5.18 124.98 -5.18 Z M 138.25 0 L 140.63 0 L 140.63 -3.64 L 144.83 -3.64 L 144.83 -5.6 L 140.63 -5.6 L 140.63 -7.84 L 146.23 -7.84 L 146.23 -9.8 L 138.25 -9.8 Z M 160.73 0.14 C 163.87 0.14 165.42 -1.33 165.42 -4.56 L 165.41 -9.8 L 163.03 -9.8 L 163.03 -4.13 C 163.03 -2.58 162.3 -1.82 160.73 -1.82 C 159.18 -1.82 158.42 -2.55 158.42 -4.13 L 158.41 -9.8 L 156.03 -9.8 L 156.03 -4.56 C 156.03 -1.43 157.5 0.14 160.73 0.14 Z M 175.22 0 L 183.2 0 L 183.2 -1.96 L 177.6 -1.96 L 177.6 -9.8 L 175.22 -9.8 Z" stroke-linecap="round" />
</g>
		<g transform="matrix(1 0 0 1 0.007000000000005002 9.175600000000031)" id="tagline-c349782e-9ba2-4d7a-a88f-99e086d1d059-logo-path-1"  >
<path style="stroke: none; stroke-width: 0.22976229555349736; stroke-dasharray: none; stroke-linecap: butt; stroke-dashoffset: 0; stroke-linejoin: miter; stroke-miterlimit: 4; fill: rgb(83,113,255); fill-rule: nonzero; opacity: 1;"  paint-order="stroke"  transform=" translate(-61.65, 4.8999999999999995)" d="M 4.59 0.14 C 7.21 0.14 8.48 -1.06 8.48 -3.75 L 8.48 -9.8 L 6.1 -9.8 L 6.1 -3.75 C 6.1 -2.45 5.64 -1.82 4.59 -1.82 C 3.57 -1.82 3.08 -2.41 3.08 -3.75 L 0.7 -3.75 C 0.7 -1.13 1.9 0.14 4.59 0.14 Z M 23.34 0.14 C 26.68 0.14 28.36 -1.48 28.36 -4.91 C 28.36 -8.27 26.8 -9.94 23.34 -9.94 C 19.96 -9.94 18.28 -8.37 18.28 -4.91 C 18.28 -1.54 19.87 0.14 23.34 0.14 Z M 20.66 -4.91 C 20.66 -6.97 21.5 -7.98 23.34 -7.98 C 25.09 -7.98 25.98 -7 25.98 -4.91 C 25.98 -2.84 25.17 -1.82 23.34 -1.82 C 21.55 -1.82 20.66 -2.79 20.66 -4.91 Z M 42.87 0.14 C 46 0.14 47.56 -1.33 47.56 -4.56 L 47.54 -9.8 L 45.16 -9.8 L 45.16 -4.13 C 45.16 -2.58 44.44 -1.82 42.87 -1.82 C 41.31 -1.82 40.56 -2.55 40.56 -4.13 L 40.54 -9.8 L 38.16 -9.8 L 38.16 -4.56 C 38.16 -1.43 39.63 0.14 42.87 0.14 Z M 57.36 0 L 59.74 0 L 59.74 -3.22 L 61.52 -3.22 L 63.38 0 L 65.9 0 L 63.91 -3.44 C 65.11 -3.86 65.72 -4.9 65.72 -6.54 C 65.72 -8.71 64.62 -9.8 62.44 -9.8 L 57.36 -9.8 Z M 59.74 -5.18 L 59.74 -7.84 L 62.43 -7.84 C 63 -7.84 63.34 -7.41 63.34 -6.52 C 63.34 -5.63 63.03 -5.18 62.43 -5.18 Z M 82.14 0 L 85.08 0 L 85.08 -9.8 L 82.7 -9.8 L 82.7 -3.04 L 78.64 -9.8 L 75.7 -9.8 L 75.7 0 L 78.08 0 L 78.08 -6.76 Z M 94.88 0 L 102.86 0 L 102.86 -1.96 L 97.26 -1.96 L 97.26 -3.92 L 101.46 -3.92 L 101.46 -5.88 L 97.26 -5.88 L 97.26 -7.84 L 102.86 -7.84 L 102.86 -9.8 L 94.88 -9.8 Z M 116.44 -3.78 L 116.44 0 L 118.82 0 L 118.82 -3.78 L 122.6 -9.8 L 120.08 -9.8 L 117.63 -5.89 L 115.18 -9.8 L 112.66 -9.8 Z" stroke-linecap="round" />
</g>
</g>
</g>
<g transform="matrix(1.9211538461538462 0 0 1.9211538461538462 640 425.10894082198956)" id="tagline-83fdfb2a-8044-4ad8-b129-1c6be14b1c43-logo"  >
<g style=""  paint-order="stroke"   >
		<g transform="matrix(1 0 0 1 0 0)" id="tagline-83fdfb2a-8044-4ad8-b129-1c6be14b1c43-logo-path-0"  >
<linearGradient id="SVGID_167081" gradientUnits="userSpaceOnUse" gradientTransform="matrix(1 0 0 1 7.75 -108.5)"  x1="-7.75" y1="-27.766699999999986" x2="-7.75" y2="147.2333">
<stop offset="0%" style="stop-color:rgb(113,23,234);stop-opacity: 1"/>
<stop offset="100%" style="stop-color:rgb(234,96,96);stop-opacity: 1"/>
</linearGradient>
<path style="stroke: rgb(255,255,255); stroke-width: 0; stroke-dasharray: none; stroke-linecap: butt; stroke-dashoffset: 0; stroke-linejoin: miter; stroke-miterlimit: 4; fill: url(#SVGID_167081); fill-rule: nonzero; opacity: 1;"  paint-order="stroke"  transform=" translate(-55.025, 54.25)" d="M 41.85 0 L 68.2 0 L 68.2 -86.8 L 102.3 -86.8 L 102.3 -108.5 L 7.75 -108.5 L 7.75 -86.8 L 41.85 -86.8 Z" stroke-linecap="round" />
</g>
</g>
</g>
</svg>